<svg width="455" height="502" viewBox="0 0 455 502" fill="none" xmlns="http://www.w3.org/2000/svg">
<path d="M362 7.58573H361.188C300.324 -15.1371 232.157 14.8894 207.811 74.9416C229.805 72.4979 261.514 65.933 294.958 50.6373C261.514 65.9331 229.806 72.4982 207.812 74.9424C207.812 75.3478 207.609 75.5505 207.406 75.7533C207.203 75.9562 207 76.1592 207 76.5651C269.487 100.099 338.466 69.2615 362 7.58573Z" fill="#117DE1"/>
<path d="M343.58 106.106C303.047 95.4392 262.513 106.106 227.313 131.706C192.113 106.106 151.58 95.4392 111.046 106.106C26.7802 127.44 -19.0868 231.973 7.58017 339.706C35.3132 447.439 124.913 517.839 209.18 497.573C220.913 494.373 232.647 494.373 244.38 497.573C328.647 518.906 418.247 448.506 445.98 339.706C473.713 231.973 427.847 127.44 343.58 106.106Z" fill="#117DE1"/>
</svg>
