<?xml version="1.0" standalone="no"?>
<!DOCTYPE svg PUBLIC "-//W3C//DTD SVG 20010904//EN"
 "http://www.w3.org/TR/2001/REC-SVG-20010904/DTD/svg10.dtd">
<svg version="1.0" xmlns="http://www.w3.org/2000/svg"
 width="688.000000pt" height="688.000000pt" viewBox="0 0 688.000000 688.000000"
 preserveAspectRatio="xMidYMid meet">
<metadata>
Created by potrace 1.11, written by Peter Selinger 2001-2013
</metadata>
<g transform="translate(0.000000,688.000000) scale(0.100000,-0.100000)"
fill="#000000" stroke="none">
<path d="M3258 6675 c-2 -2 -24 -6 -48 -9 -171 -18 -394 -74 -530 -133 -179
-78 -328 -162 -453 -256 -109 -83 -127 -98 -221 -193 -102 -102 -121 -124
-181 -204 -27 -36 -52 -67 -55 -70 -3 -3 -11 -17 -19 -32 -8 -16 -18 -28 -23
-28 -4 0 -8 -5 -8 -11 0 -6 -8 -23 -19 -37 -39 -57 -155 -294 -176 -362 -1 -3
-13 -43 -28 -90 -25 -80 -54 -195 -63 -250 -2 -14 -6 -34 -9 -45 -25 -116 -25
-551 0 -627 2 -7 6 -31 9 -53 3 -22 17 -85 31 -140 14 -55 28 -107 30 -115 24
-97 181 -439 206 -448 5 -2 9 -8 9 -14 0 -10 56 -94 77 -116 7 -8 18 -23 24
-34 13 -24 34 -50 76 -94 17 -19 29 -34 27 -34 -2 0 9 -14 26 -32 17 -17 29
-32 28 -33 -2 -2 -34 -6 -73 -10 -38 -3 -90 -11 -114 -16 -24 -5 -56 -11 -70
-14 -14 -2 -37 -6 -51 -10 -14 -3 -35 -8 -48 -11 -103 -21 -342 -113 -453
-175 -40 -21 -73 -39 -75 -39 -7 0 -176 -110 -189 -123 -7 -7 -23 -19 -35 -27
-125 -84 -324 -287 -458 -465 -32 -43 -102 -155 -102 -163 0 -6 -4 -12 -8 -14
-9 -3 -108 -202 -137 -273 -39 -95 -99 -297 -111 -375 -3 -19 -8 -38 -10 -41
-2 -4 -6 -31 -9 -61 -3 -30 -8 -66 -12 -79 -3 -13 -8 -228 -10 -476 -5 -509
-4 -522 63 -583 72 -65 -203 -60 3394 -58 3086 3 3277 4 3306 20 38 22 74 62
97 108 16 32 17 74 14 505 -2 259 -7 481 -11 495 -3 14 -8 43 -11 65 -2 22 -7
51 -10 65 -3 14 -7 36 -10 50 -7 39 -11 54 -44 175 -35 126 -128 340 -200 460
-17 28 -34 57 -37 65 -4 8 -24 38 -45 67 -22 29 -39 56 -39 62 0 5 -3 11 -7
13 -5 2 -35 37 -68 78 -69 86 -208 227 -280 284 -28 22 -54 45 -60 51 -15 16
-162 118 -215 149 -129 75 -370 186 -440 201 -8 2 -46 13 -85 25 -38 11 -79
22 -90 24 -11 3 -42 9 -70 15 -72 15 -112 21 -180 27 -33 3 -61 7 -63 9 -2 1
9 16 23 31 15 16 43 49 64 73 20 24 41 49 46 55 91 103 247 384 305 551 18 50
34 97 37 105 3 8 7 20 8 25 2 6 12 46 23 90 22 85 27 110 38 190 3 28 8 59 11
70 11 50 9 369 -3 465 -13 105 -14 117 -33 200 -16 77 -20 91 -37 149 -10 31
-18 58 -19 61 -3 15 -19 59 -30 85 -23 55 -32 80 -35 90 -3 12 -93 184 -116
222 -29 46 -88 137 -96 148 -98 128 -141 177 -221 257 -245 246 -542 422 -877
519 -58 17 -116 32 -130 34 -14 2 -63 12 -110 20 -78 15 -490 31 -502 20z
m457 -895 c28 -6 64 -18 80 -25 17 -7 41 -16 55 -20 14 -4 27 -10 30 -14 3 -3
22 -15 42 -26 53 -29 137 -101 185 -160 98 -119 152 -263 169 -450 4 -38 8
-73 11 -77 2 -5 1 -8 -4 -8 -4 0 -8 -26 -9 -58 -1 -148 -43 -291 -125 -431
-47 -82 -149 -195 -325 -361 -71 -68 -108 -171 -108 -300 1 -52 -45 -130 -97
-165 -42 -29 -49 -30 -154 -31 -108 -2 -111 -1 -160 30 -71 46 -100 105 -99
200 1 94 13 177 36 261 7 22 12 42 13 45 0 3 10 26 22 51 42 94 116 188 265
339 196 200 225 254 222 415 -1 103 -7 132 -34 185 -38 75 -121 111 -239 104
-153 -8 -242 -95 -256 -251 -9 -93 -23 -128 -66 -171 -51 -52 -93 -66 -200
-66 -73 1 -92 4 -135 28 -87 47 -116 112 -109 241 5 99 11 134 36 209 20 58
75 176 88 186 3 3 18 21 33 41 27 36 69 78 138 138 56 48 187 110 290 135 80
21 115 24 225 21 72 -1 153 -8 180 -15z m-120 -2514 c160 -74 224 -278 132
-419 -9 -14 -17 -29 -17 -33 0 -15 -70 -69 -119 -92 -199 -91 -421 51 -423
271 -2 107 51 200 148 263 69 46 191 50 279 10z"/>
</g>
</svg>
